<?xml version="1.0" standalone="no"?>
<!DOCTYPE svg PUBLIC "-//W3C//DTD SVG 20010904//EN"
 "http://www.w3.org/TR/2001/REC-SVG-20010904/DTD/svg10.dtd">
<svg version="1.0" xmlns="http://www.w3.org/2000/svg"
 width="86.000000pt" height="120.000000pt" viewBox="0 0 86.000000 120.000000"
 preserveAspectRatio="xMidYMid meet">

<g transform="translate(0.000000,120.000000) scale(0.100000,-0.100000)"
fill="#000000" stroke="none">
<path d="M380 1179 c0 -11 -4 -18 -9 -15 -12 8 -42 -4 -36 -13 2 -4 -9 -23
-25 -42 -16 -19 -29 -38 -30 -42 0 -5 18 -6 40 -2 38 6 40 6 40 -19 0 -14 -5
-26 -11 -26 -6 0 -8 -9 -4 -20 4 -14 2 -20 -9 -20 -10 0 -13 6 -10 18 5 14 3
14 -10 -2 -9 -11 -16 -23 -16 -28 0 -4 -13 -8 -30 -8 -17 0 -30 5 -30 12 0 7
-8 1 -17 -12 -9 -14 -22 -28 -27 -32 -7 -5 -3 -8 8 -8 11 0 16 -3 12 -7 -13
-13 -30 -9 -50 9 -27 24 -46 6 -23 -20 9 -10 17 -26 17 -35 0 -9 5 -17 11 -17
5 0 7 5 4 11 -5 6 0 6 12 -1 24 -15 29 -52 6 -43 -11 4 -14 3 -9 -6 4 -6 16
-9 27 -6 15 5 19 1 19 -16 0 -27 13 -17 15 11 1 11 -3 20 -8 20 -6 0 -8 3 -4
6 3 3 13 2 23 -4 11 -6 13 -11 5 -16 -8 -5 -8 -13 0 -28 9 -16 8 -22 -2 -29
-11 -6 -10 -11 6 -23 11 -8 17 -18 12 -22 -4 -4 -13 -2 -19 4 -7 7 -16 12 -22
12 -5 0 -6 -3 -3 -7 4 -3 2 -12 -4 -19 -8 -10 -15 -10 -29 -2 -14 9 -16 17 -9
35 11 31 11 36 -1 28 -6 -3 -10 -15 -10 -26 0 -12 -10 -23 -25 -29 -14 -5 -25
-14 -25 -20 0 -5 -7 -10 -15 -10 -8 0 -15 8 -15 18 0 14 2 15 10 2 7 -12 9
-10 8 7 -1 12 -7 19 -15 16 -14 -6 -17 -19 -15 -71 1 -26 -2 -33 -13 -28 -17
6 -21 -9 -5 -19 16 -10 12 -33 -7 -38 -17 -4 -17 -5 0 -6 11 -1 17 -9 17 -25
0 -14 11 -33 26 -45 25 -19 26 -20 58 -2 20 12 43 17 60 14 18 -4 31 -1 37 8
4 7 11 10 15 6 4 -3 1 -13 -5 -21 -9 -10 -20 -12 -41 -6 -27 8 -29 7 -20 -11
10 -17 8 -18 -13 -10 -14 6 -29 6 -38 0 -11 -7 -11 -9 4 -9 9 0 17 -4 17 -10
0 -5 8 -6 18 -3 15 6 15 5 3 -10 -10 -12 -10 -17 -2 -17 13 0 4 -11 -29 -37
-13 -10 -16 -8 -18 13 -1 13 3 24 8 24 5 0 7 7 4 15 -6 15 -26 22 -22 8 1 -5
-5 -21 -15 -38 -9 -16 -16 -25 -17 -20 0 6 -5 3 -10 -5 -7 -11 -10 -11 -10 -2
0 7 -5 10 -10 7 -16 -10 -11 -22 11 -28 12 -3 18 -10 14 -16 -11 -18 7 -12 20
6 12 16 13 15 12 -9 -1 -14 -5 -24 -8 -22 -4 2 -9 -10 -13 -27 -4 -21 -11 -29
-23 -27 -12 2 -17 -2 -15 -12 2 -8 0 -12 -4 -8 -4 4 -13 3 -21 -3 -15 -13 -18
-33 -3 -24 11 7 14 -8 4 -18 -10 -10 -33 4 -28 18 3 7 1 16 -4 19 -5 3 -12 -4
-16 -17 -3 -12 -1 -24 4 -25 6 -2 15 -13 22 -25 10 -21 10 -21 -7 -7 -17 14
-18 14 -6 -8 9 -18 9 -22 -1 -20 -9 2 -14 -11 -16 -39 -6 -75 34 -111 58 -53
7 16 19 35 26 41 8 7 24 34 36 60 11 27 24 46 29 43 5 -2 11 8 15 23 9 39 65
123 81 123 7 0 13 8 13 18 0 9 14 33 30 52 16 19 30 38 30 43 0 4 5 7 10 7 6
0 9 -5 8 -11 -2 -6 3 -14 10 -16 11 -4 12 -1 2 17 -13 24 -4 43 10 20 11 -17
7 -201 -4 -219 -5 -8 0 -14 13 -18 12 -3 21 -9 21 -14 0 -21 64 -40 133 -40
69 -1 71 -1 45 -15 -33 -17 -34 -22 -10 -41 16 -14 16 -14 -3 -8 -20 6 -20 6
0 -13 25 -25 37 -18 28 16 -6 25 -5 26 12 12 17 -14 18 -13 12 16 -6 30 -5 30
50 42 31 6 60 9 64 6 5 -3 9 0 9 5 0 15 47 14 53 -2 3 -6 6 0 6 14 1 26 24 45
42 33 14 -8 11 -24 -5 -24 -8 0 -18 -5 -22 -12 -5 -8 -2 -9 12 -4 10 5 24 9
30 9 7 0 12 15 11 33 -1 18 -4 31 -8 28 -4 -2 -10 4 -13 13 -4 9 -2 20 5 23 8
6 8 9 0 14 -6 4 -11 4 -11 -1 0 -10 -25 27 -33 50 -6 15 -3 17 12 12 11 -3 23
-1 27 6 4 7 2 10 -7 7 -21 -8 -51 11 -45 28 3 8 -1 17 -9 20 -8 4 -15 11 -15
16 0 6 6 8 14 5 9 -4 14 2 14 19 0 13 -5 24 -10 24 -5 0 -6 -4 -3 -10 4 -6
-10 -10 -34 -10 -26 0 -41 5 -41 13 0 6 -7 25 -15 41 -12 23 -13 31 -3 37 7 4
9 11 4 16 -4 4 -12 0 -17 -10 -11 -19 -29 -14 -29 9 0 8 5 12 10 9 6 -3 10 3
10 14 0 10 3 27 7 37 4 12 3 15 -5 10 -8 -4 -12 0 -12 11 -1 16 -2 16 -12 -2
-18 -30 -19 -47 -2 -41 19 7 18 -3 -2 -25 -22 -25 -47 -14 -33 14 9 16 9 19
-4 14 -23 -8 -29 4 -10 19 15 11 14 11 -10 7 -21 -4 -27 -1 -27 12 0 12 6 16
20 12 11 -3 23 -1 26 4 3 5 0 9 -6 9 -6 0 4 16 21 35 18 19 36 32 40 29 5 -3
9 1 9 9 0 8 6 20 14 26 15 13 27 71 15 71 -5 0 -7 6 -5 13 1 6 1 9 -1 5 -3 -5
-11 -8 -19 -8 -9 0 -13 4 -10 9 4 5 -3 7 -13 4 -16 -4 -19 -1 -14 16 3 11 10
18 16 14 7 -4 8 5 3 27 -3 19 -11 37 -17 41 -7 4 -8 12 -5 18 4 6 2 11 -3 11
-6 0 -11 -7 -11 -15 0 -20 -24 -19 -40 0 -10 13 -11 18 -1 28 10 9 11 8 6 -5
-5 -12 -2 -18 8 -18 22 0 30 30 9 32 -31 2 -37 4 -59 16 -13 7 -23 20 -23 30
1 16 2 16 14 -1 10 -13 15 -15 19 -5 3 9 9 8 21 -7 8 -11 16 -15 16 -8 0 6 7
19 16 27 15 15 8 21 -19 17 -4 0 -6 2 -6 7 5 30 -2 51 -16 46 -11 -4 -13 -2
-9 9 4 12 1 14 -15 10 -12 -3 -21 -12 -21 -20 0 -8 5 -11 10 -8 6 3 10 1 10
-5 0 -7 -7 -10 -15 -6 -8 3 -15 1 -15 -4 0 -6 5 -10 10 -10 6 0 10 -5 10 -11
0 -8 -5 -7 -16 2 -13 10 -17 10 -25 -2 -5 -8 -7 -20 -4 -26 2 -7 0 -23 -5 -35
-8 -19 -9 -15 -8 22 1 30 9 53 22 69 l21 23 -23 -6 c-15 -5 -24 -3 -28 8 -3 9
-10 13 -15 10 -5 -3 -9 2 -9 11 0 12 6 15 19 10 11 -3 22 -1 26 5 4 6 -12 10
-44 10 -45 0 -51 -3 -51 -21z m-106 -259 c-6 -6 -10 -2 -11 12 -2 16 1 18 10
9 7 -7 8 -14 1 -21z m286 26 c0 -2 -7 -7 -16 -10 -8 -3 -12 -2 -9 4 6 10 25
14 25 6z m78 -13 c2 -7 -1 -13 -8 -13 -6 0 -9 4 -5 9 3 5 -3 12 -12 15 -15 4
-15 5 1 3 11 -1 21 -8 24 -14z m-85 -44 c-5 -16 -8 -18 -14 -7 -13 20 -11 38
5 32 8 -3 12 -13 9 -25z m-23 -31 c0 -5 -7 -8 -16 -8 -12 0 -15 -6 -10 -24 6
-23 4 -23 -19 -13 -18 9 -20 13 -9 15 8 2 13 9 11 15 -2 6 4 19 12 29 11 13
17 15 23 5 4 -6 8 -15 8 -19z m-70 -8 c0 -5 -2 -10 -4 -10 -3 0 -8 5 -11 10
-3 6 -1 10 4 10 6 0 11 -4 11 -10z m67 -42 c-3 -7 -5 -2 -5 12 0 14 2 19 5 13
2 -7 2 -19 0 -25z m30 10 c-3 -8 -6 -5 -6 6 -1 11 2 17 5 13 3 -3 4 -12 1 -19z
m-262 -29 c-4 -11 -1 -26 5 -34 9 -11 9 -15 1 -15 -11 0 -13 6 -15 52 -1 14 2
24 7 21 4 -2 5 -14 2 -24z m-135 -115 c0 -9 -28 -34 -38 -34 -6 0 -12 -5 -14
-12 -3 -7 -7 -5 -11 6 -4 9 -3 15 2 12 4 -3 17 3 27 14 19 19 34 25 34 14z
m40 -30 c0 -21 -17 -25 -22 -6 -3 11 0 19 8 19 8 0 14 -6 14 -13z m-30 -19 c0
-8 -4 -15 -10 -15 -5 0 -7 7 -4 15 4 8 8 15 10 15 2 0 4 -7 4 -15z m390 -25
c-8 -5 -19 -10 -25 -10 -5 0 -3 5 5 10 8 5 20 10 25 10 6 0 3 -5 -5 -10z m-32
-106 c12 -8 22 -12 22 -9 0 3 13 -2 29 -11 17 -10 28 -21 25 -26 -3 -4 3 -5
12 -1 11 4 13 8 6 11 -16 5 -5 22 13 22 9 0 12 -6 9 -15 -4 -8 -1 -15 7 -15 7
0 9 3 6 6 -8 9 11 44 24 44 6 0 6 -7 -1 -19 -7 -15 -6 -23 6 -36 9 -8 18 -35
20 -58 4 -34 2 -38 -6 -22 -6 11 -22 25 -35 32 -27 12 -33 5 -13 -15 9 -9 9
-12 0 -12 -8 0 -12 -11 -10 -27 2 -19 -2 -28 -12 -28 -10 0 -14 -8 -12 -27 2
-14 -2 -29 -7 -33 -7 -4 -11 6 -12 27 -1 21 -3 26 -6 13 -8 -33 -21 -39 -17
-8 2 15 1 21 -3 13 -11 -26 -31 -40 -47 -34 -9 3 -23 0 -32 -7 -13 -11 -14 -9
-9 14 5 18 3 27 -5 27 -8 0 -10 8 -7 21 4 13 1 19 -6 16 -7 -2 -18 1 -24 8
-10 10 -9 14 4 19 11 5 13 13 8 33 -5 21 -1 31 17 46 13 10 17 15 9 11 -9 -5
-12 -2 -7 7 3 8 9 22 12 32 8 21 13 21 42 1z m145 -140 c-7 -3 -9 -13 -6 -22
4 -14 3 -14 -5 -2 -12 16 -7 30 11 29 9 0 9 -2 0 -5z m-234 -74 c0 -9 -4 -8
-9 5 -5 11 -9 27 -9 35 0 9 4 8 9 -5 5 -11 9 -27 9 -35z m32 4 c6 -7 3 -16 -6
-24 -13 -11 -15 -7 -14 26 0 22 3 32 6 24 3 -8 10 -20 14 -26z m178 -10 c-6
-8 -14 -14 -17 -14 -3 0 -2 3 1 6 3 4 2 15 -4 26 -10 18 -9 18 11 8 17 -9 19
-14 9 -26z"/>
<path d="M506 475 c-3 -8 -1 -15 4 -15 6 0 10 7 10 15 0 8 -2 15 -4 15 -2 0
-6 -7 -10 -15z"/>
<path d="M465 419 c-9 -14 -2 -20 14 -10 8 6 9 11 3 15 -6 3 -14 1 -17 -5z"/>
<path d="M531 314 c0 -11 3 -14 6 -6 3 7 2 16 -1 19 -3 4 -6 -2 -5 -13z"/>
<path d="M812 1140 c0 -14 2 -19 5 -12 2 6 2 18 0 25 -3 6 -5 1 -5 -13z"/>
<path d="M307 1143 c-4 -3 -7 -11 -7 -17 0 -6 5 -5 12 2 6 6 9 14 7 17 -3 3
-9 2 -12 -2z"/>
<path d="M580 1120 c0 -5 5 -10 10 -10 6 0 10 5 10 10 0 6 -4 10 -10 10 -5 0
-10 -4 -10 -10z"/>
<path d="M624 1084 c-4 -14 -2 -30 3 -35 5 -5 9 4 10 26 1 41 -4 45 -13 9z"/>
<path d="M120 1070 c0 -5 5 -10 11 -10 5 0 7 5 4 10 -3 6 -8 10 -11 10 -2 0
-4 -4 -4 -10z"/>
<path d="M301 1034 c0 -11 3 -14 6 -6 3 7 2 16 -1 19 -3 4 -6 -2 -5 -13z"/>
<path d="M70 975 c0 -8 7 -15 16 -15 14 0 14 3 4 15 -7 8 -14 15 -16 15 -2 0
-4 -7 -4 -15z"/>
<path d="M127 970 c3 -11 12 -20 21 -20 13 0 12 3 -3 20 -10 11 -19 20 -21 20
-1 0 0 -9 3 -20z"/>
<path d="M791 954 c0 -11 3 -14 6 -6 3 7 2 16 -1 19 -3 4 -6 -2 -5 -13z"/>
<path d="M70 920 c0 -5 5 -10 10 -10 6 0 10 5 10 10 0 6 -4 10 -10 10 -5 0
-10 -4 -10 -10z"/>
<path d="M112 908 c2 -16 6 -24 11 -19 5 5 5 17 -2 28 -9 16 -10 15 -9 -9z"/>
<path d="M764 909 c-3 -6 -2 -15 3 -20 5 -5 9 -1 9 11 0 23 -2 24 -12 9z"/>
<path d="M796 895 c-9 -26 -7 -32 5 -12 6 10 9 21 6 23 -2 3 -7 -2 -11 -11z"/>
<path d="M715 830 c-3 -5 -1 -10 4 -10 6 0 11 5 11 10 0 6 -2 10 -4 10 -3 0
-8 -4 -11 -10z"/>
<path d="M770 801 c0 -8 41 -23 47 -17 2 1 -8 8 -22 14 -14 6 -25 8 -25 3z"/>
<path d="M830 785 c0 -8 4 -15 10 -15 5 0 7 7 4 15 -4 8 -8 15 -10 15 -2 0 -4
-7 -4 -15z"/>
<path d="M749 764 c0 -10 -2 -27 -4 -36 -3 -15 0 -16 16 -7 16 8 17 13 8 32
-17 31 -19 33 -20 11z"/>
<path d="M40 760 c0 -5 7 -10 15 -10 8 0 15 5 15 10 0 6 -7 10 -15 10 -8 0
-15 -4 -15 -10z"/>
<path d="M115 760 c-3 -6 1 -17 9 -26 15 -14 16 -13 16 10 0 26 -13 35 -25 16z"/>
<path d="M710 750 c0 -19 3 -21 12 -12 9 9 9 15 0 24 -9 9 -12 7 -12 -12z"/>
<path d="M805 760 c3 -5 8 -10 11 -10 2 0 4 5 4 10 0 6 -5 10 -11 10 -5 0 -7
-4 -4 -10z"/>
<path d="M782 743 c3 -18 -16 -43 -33 -43 -10 0 -19 -5 -19 -12 0 -6 3 -8 6
-5 4 3 16 2 27 -4 10 -6 17 -7 14 -1 -4 5 0 18 8 28 17 22 19 44 5 44 -5 0 -9
-3 -8 -7z"/>
<path d="M622 704 c4 -4 3 -15 -3 -25 -13 -24 -8 -24 13 0 15 18 15 20 0 26
-9 3 -13 3 -10 -1z"/>
<path d="M724 649 c-3 -6 -1 -15 6 -19 7 -4 10 -13 6 -19 -4 -6 -1 -29 5 -51
8 -26 15 -36 20 -28 4 7 4 17 0 23 -12 16 -20 55 -11 55 10 0 1 38 -11 45 -4
3 -11 0 -15 -6z"/>
<path d="M766 614 c-4 -11 -3 -20 3 -22 6 -2 9 -8 6 -12 -3 -5 0 -12 6 -16 7
-4 9 -3 5 4 -3 6 3 13 14 17 11 3 20 11 20 16 0 6 -5 7 -11 4 -6 -4 -16 1 -23
10 -12 17 -13 17 -20 -1z"/>
<path d="M830 561 c0 -6 4 -13 10 -16 6 -3 7 1 4 9 -7 18 -14 21 -14 7z"/>
<path d="M715 551 c3 -5 1 -12 -5 -16 -6 -4 -5 -11 4 -21 25 -24 35 -16 20 16
-9 17 -18 30 -20 30 -3 0 -3 -4 1 -9z"/>
<path d="M770 520 c0 -11 4 -20 8 -20 4 0 8 9 9 20 1 11 -2 20 -8 20 -5 0 -9
-9 -9 -20z"/>
<path d="M805 510 c3 -5 8 -10 11 -10 2 0 4 5 4 10 0 6 -5 10 -11 10 -5 0 -7
-4 -4 -10z"/>
<path d="M53 455 c-14 -15 -19 -74 -6 -61 4 4 8 15 8 24 0 20 45 30 45 10 0
-8 4 -6 11 5 5 9 7 22 4 27 -9 15 -48 11 -62 -5z"/>
<path d="M296 381 c-17 -18 -17 -20 1 -30 14 -9 15 -12 4 -20 -19 -12 -4 -51
20 -51 14 0 18 4 12 13 -4 6 -6 22 -4 35 1 13 -3 29 -9 37 -6 8 -9 19 -5 25
10 16 0 12 -19 -9z"/>
<path d="M45 350 c3 -5 8 -10 11 -10 2 0 4 5 4 10 0 6 -5 10 -11 10 -5 0 -7
-4 -4 -10z"/>
<path d="M59 299 c-8 -4 -7 -9 1 -14 9 -6 9 -10 -1 -16 -8 -5 -9 -9 -3 -9 9 0
54 36 54 43 0 6 -41 2 -51 -4z"/>
<path d="M260 290 c0 -5 7 -10 16 -10 8 0 12 5 9 10 -3 6 -10 10 -16 10 -5 0
-9 -4 -9 -10z"/>
<path d="M220 235 c0 -8 -8 -15 -17 -16 -15 0 -15 -2 2 -9 32 -14 55 -11 55 6
0 14 -3 14 -15 4 -9 -7 -18 -10 -22 -6 -3 3 -2 6 4 6 5 0 10 7 10 15 0 8 -4
15 -9 15 -4 0 -8 -7 -8 -15z"/>
<path d="M304 213 c1 -23 6 -31 18 -30 13 1 14 4 6 14 -7 9 -7 18 3 31 13 15
12 16 -3 4 -13 -10 -17 -10 -21 0 -2 7 -4 -1 -3 -19z"/>
<path d="M258 155 c2 -14 6 -25 7 -25 1 0 5 11 7 25 3 16 1 25 -7 25 -8 0 -10
-9 -7 -25z"/>
<path d="M836 173 c-4 -5 -14 -23 -22 -41 -11 -27 -18 -32 -34 -27 -15 5 -19
3 -14 -10 4 -10 13 -13 25 -10 11 4 26 0 35 -9 8 -9 20 -16 25 -16 5 0 0 9
-11 20 -24 24 -26 38 -4 36 9 0 19 6 21 14 4 13 3 13 -7 0 -9 -12 -11 -9 -7
18 4 35 4 35 -7 25z"/>
<path d="M337 160 c7 -8 9 -20 4 -29 -9 -19 -8 -98 2 -107 4 -4 7 3 7 15 0 18
4 22 20 18 24 -6 28 24 6 46 -8 7 -16 24 -18 37 -1 13 -10 25 -18 28 -12 4
-12 2 -3 -8z"/>
<path d="M390 161 c0 -5 5 -13 10 -16 6 -3 10 -2 10 4 0 5 -4 13 -10 16 -5 3
-10 2 -10 -4z"/>
<path d="M158 137 c-3 -19 -2 -25 4 -19 6 6 8 18 6 28 -3 14 -5 12 -10 -9z"/>
<path d="M225 150 c-3 -5 -2 -10 4 -10 5 0 13 5 16 10 3 6 2 10 -4 10 -5 0
-13 -4 -16 -10z"/>
<path d="M670 150 c0 -5 5 -10 11 -10 5 0 7 5 4 10 -3 6 -8 10 -11 10 -2 0 -4
-4 -4 -10z"/>
<path d="M137 144 c-4 -4 -7 -17 -7 -28 1 -19 1 -20 11 -3 11 19 8 43 -4 31z"/>
<path d="M282 129 c-8 -13 -19 -18 -29 -15 -12 5 -13 2 -7 -11 8 -18 9 -59 3
-79 -2 -7 1 -11 6 -10 6 0 9 9 8 19 -2 9 2 17 7 17 7 0 7 7 0 21 -10 17 -8 24
10 39 12 11 20 24 18 30 -1 5 -9 1 -16 -11z"/>
<path d="M430 140 c0 -5 5 -10 10 -10 6 0 10 5 10 10 0 6 -4 10 -10 10 -5 0
-10 -4 -10 -10z"/>
<path d="M430 94 c0 -8 5 -12 10 -9 6 3 10 10 10 16 0 5 -4 9 -10 9 -5 0 -10
-7 -10 -16z"/>
<path d="M677 103 c-4 -3 -7 -11 -7 -17 0 -6 5 -5 12 2 6 6 9 14 7 17 -3 3 -9
2 -12 -2z"/>
<path d="M640 89 c0 -8 5 -21 10 -29 8 -12 9 -10 7 7 -4 26 -17 43 -17 22z"/>
<path d="M295 69 c-4 -6 -5 -12 -2 -15 2 -3 7 2 10 11 7 17 1 20 -8 4z"/>
<path d="M716 69 c4 -8 0 -9 -15 -4 -11 3 -21 3 -21 -2 0 -5 14 -10 31 -11 28
-2 30 0 19 13 -14 17 -24 20 -14 4z"/>
<path d="M127 64 c6 -3 10 -17 7 -32 l-4 -27 20 25 c11 14 20 30 20 35 0 6 -4
4 -9 -4 -6 -9 -11 -10 -15 -2 -4 6 -13 11 -19 10 -9 0 -9 -2 0 -5z"/>
<path d="M424 55 c2 -7 -2 -22 -10 -34 -14 -20 -14 -21 11 -21 23 0 25 3 19
27 -6 22 -4 25 10 20 9 -4 16 -1 16 6 0 7 -12 13 -26 13 -17 1 -24 -2 -20 -11z"/>
<path d="M768 63 c7 -3 16 -2 19 1 4 3 -2 6 -13 5 -11 0 -14 -3 -6 -6z"/>
<path d="M186 47 c3 -10 9 -15 12 -12 3 3 0 11 -7 18 -10 9 -11 8 -5 -6z"/>
<path d="M524 49 c-3 -6 -1 -16 5 -22 8 -8 11 -5 11 11 0 24 -5 28 -16 11z"/>
<path d="M671 31 c-8 -5 -9 -11 -3 -15 5 -3 12 1 16 9 6 17 6 18 -13 6z"/>
<path d="M580 15 c0 -8 4 -15 10 -15 5 0 7 7 4 15 -8 19 -14 19 -14 0z"/>
<path d="M630 26 c0 -2 7 -9 15 -16 13 -11 14 -10 9 4 -5 14 -24 23 -24 12z"/>
<path d="M701 14 c0 -11 3 -14 6 -6 3 7 2 16 -1 19 -3 4 -6 -2 -5 -13z"/>
<path d="M280 9 c0 -5 5 -7 10 -4 6 3 10 8 10 11 0 2 -4 4 -10 4 -5 0 -10 -5
-10 -11z"/>
</g>
</svg>
